<svg xmlns="http://www.w3.org/2000/svg" width="1000" height="500" viewBox="0 0 1000 500">
    <!-- © 2025 NOT_A_ROBOT, CC BY-NC-SA 4.0 https://creativecommons.org/licenses/by-nc-sa/4.0/ -->

    <defs>
        <pattern id="grid" width="50" height="50" patternUnits="userSpaceOnUse">
            <rect width="100%" height="100%" fill="#000" />
            <g fill="none" stroke="#7773" stroke-width="1" stroke-linecap="round">
                <path d="M25,0L25,50M0,25L50,25" />
                <line x1="25" x2="25" y1="18" y2="32" />
                <line x1="18" x2="32" y1="25" y2="25" />
            </g>
        </pattern>
        <radialGradient id="fade" cx="80" cy="250" r="800" gradientUnits="userSpaceOnUse">
            <stop offset="0%" stop-color="#000" stop-opacity="0" />
            <stop offset="70%" stop-color="#000" stop-opacity="0.4" />
            <stop offset="100%" stop-color="#000" stop-opacity="0.6" />
        </radialGradient>
    </defs>

    <rect y="-100%" width="100%" height="300%" fill="url(#grid)" />
    <rect y="-100%" width="100%" height="300%" fill="url(#fade)" />

    <g stroke-width="3" fill="none">
        <circle stroke="#8a848433" r="150" cx="80" cy="250" />
        <circle stroke="#e6e6e633" r="300" cx="80" cy="250" />
        <circle stroke="#3a397a66" r="500" cx="80" cy="250" />
        <circle stroke="#d6986866" r="800" cx="80" cy="250" />
    </g>

    <g fill="#fff" aria-label="Keplerian Orbital Mechanics">
        <path
            d="m 83.2,128.4 q 0.48,1.92 0.48,4.8 0,2.76 -0.48,4.8 h -9.6 q -0.48,-2.04 -0.48,-4.8 0,-2.88 0.48,-4.8 H 70 q -0.48,-2.04 -0.48,-4.8 0,-2.88 0.48,-4.8 h -7.2 q -0.48,-2.04 -0.48,-4.8 0,-2.88 0.48,-4.8 h -8.4 q 0.48,1.92 0.48,4.8 0,2.76 -0.48,4.8 0.48,1.92 0.48,4.8 0,2.76 -0.48,4.8 0.48,1.92 0.48,4.8 0,2.76 -0.48,4.8 h -9.6 q -0.48,-2.04 -0.48,-4.8 0,-2.88 0.48,-4.8 -0.48,-2.04 -0.48,-4.8 0,-2.88 0.48,-4.8 -0.48,-2.04 -0.48,-4.8 0,-2.88 0.48,-4.8 -0.48,-2.04 -0.48,-4.8 0,-2.88 0.48,-4.8 -0.48,-2.04 -0.48,-4.8 0,-2.88 0.48,-4.8 -0.48,-2.04 -0.48,-4.8 0,-2.88 0.48,-4.8 -0.48,-2.04 -0.48,-4.8 0,-2.88 0.48,-4.8 h 9.6 q 0.48,1.92 0.48,4.8 0,2.76 -0.48,4.8 0.48,1.92 0.48,4.8 0,2.76 -0.48,4.8 0.48,1.92 0.48,4.8 0,2.76 -0.48,4.8 h 8.4 q -0.48,-2.04 -0.48,-4.8 0,-2.88 0.48,-4.8 H 70 q -0.48,-2.04 -0.48,-4.8 0,-2.88 0.48,-4.8 h 3.6 q -0.48,-2.04 -0.48,-4.8 0,-2.88 0.48,-4.8 h 9.6 q 0.48,1.92 0.48,4.8 0,2.76 -0.48,4.8 h -3.6 q 0.48,1.92 0.48,4.8 0,2.76 -0.48,4.8 h -7.2 q 0.48,1.92 0.48,4.8 0,2.76 -0.48,4.8 h -6 q 0.48,1.92 0.48,4.8 0,2.76 -0.48,4.8 h 6 q 0.48,1.92 0.48,4.8 0,2.76 -0.48,4.8 h 7.2 q 0.48,1.92 0.48,4.8 0,2.76 -0.48,4.8 z m 48.47995,-24 q 0,2.76 -0.48,4.8 0.48,1.92 0.48,4.8 0,2.76 -0.48,4.8 h -25.2 q 0.48,1.92 0.48,4.8 0,2.76 -0.48,4.8 h 20.4 q 0.48,1.92 0.48,4.8 0,2.76 -0.48,4.8 h -24 q -0.48,-2.04 -0.48,-4.8 0,-2.88 0.48,-4.8 h -5.999996 q -0.48,-2.04 -0.48,-4.8 0,-2.88 0.48,-4.8 h -3.6 q -0.48,-2.04 -0.48,-4.8 0,-2.88 0.48,-4.8 h 3.6 q -0.48,-2.04 -0.48,-4.8 0,-2.88 0.48,-4.8 h 5.999996 q -0.48,-2.04 -0.48,-4.8 0,-2.88 0.48,-4.8 h 24 q 0.48,1.92 0.48,4.8 0,2.76 -0.48,4.8 h 4.8 q 0.48,1.92 0.48,4.8 z m -10.08,4.8 q -0.48,-2.04 -0.48,-4.8 0,-2.88 0.48,-4.8 h -15.6 q 0.48,1.92 0.48,4.8 0,2.76 -0.48,4.8 z m 58.07996,4.8 q 0,2.76 -0.48,4.8 h -4.8 q 0.48,1.92 0.48,4.8 0,2.76 -0.48,4.8 h -4.8 q 0.48,1.92 0.48,4.8 0,2.76 -0.48,4.8 h -19.2 q 0.48,1.92 0.48,4.8 0,2.76 -0.48,4.8 0.48,1.92 0.48,4.8 0,2.76 -0.48,4.8 h -9.6 q -0.48,-2.04 -0.48,-4.8 0,-2.88 0.48,-4.8 -0.48,-2.04 -0.48,-4.8 0,-2.88 0.48,-4.8 -0.48,-2.04 -0.48,-4.8 0,-2.88 0.48,-4.8 -0.48,-2.04 -0.48,-4.8 0,-2.88 0.48,-4.8 -0.48,-2.04 -0.48,-4.8 0,-2.88 0.48,-4.8 -0.48,-2.04 -0.48,-4.8 0,-2.88 0.48,-4.8 -0.48,-2.04 -0.48,-4.8 0,-2.88 0.48,-4.8 h 9.6 q 0.48,1.92 0.48,4.8 0,2.76 -0.48,4.8 h 4.8 q 0.48,1.92 0.48,4.8 0,2.76 -0.48,4.8 h -4.8 q 0.48,1.92 0.48,4.8 0,2.76 -0.48,4.8 0.48,1.92 0.48,4.8 0,2.76 -0.48,4.8 h 14.4 q -0.48,-2.04 -0.48,-4.8 0,-2.88 0.48,-4.8 h 4.8 q -0.48,-2.04 -0.48,-4.8 0,-2.88 0.48,-4.8 h -4.8 q -0.48,-2.04 -0.48,-4.8 0,-2.88 0.48,-4.8 h -9.6 q -0.48,-2.04 -0.48,-4.8 0,-2.88 0.48,-4.8 h 14.4 q 0.48,1.92 0.48,4.8 0,2.76 -0.48,4.8 h 4.8 q 0.48,1.92 0.48,4.8 0,2.76 -0.48,4.8 h 4.8 q 0.48,1.92 0.48,4.8 z m 42.71995,14.4 q 0.48,1.92 0.48,4.8 0,2.76 -0.48,4.8 h -28.8 q -0.48,-2.04 -0.48,-4.8 0,-2.88 0.48,-4.8 h 9.6 q -0.48,-2.04 -0.48,-4.8 0,-2.88 0.48,-4.8 -0.48,-2.04 -0.48,-4.8 0,-2.88 0.48,-4.8 -0.48,-2.04 -0.48,-4.8 0,-2.88 0.48,-4.8 -0.48,-2.04 -0.48,-4.8 0,-2.88 0.48,-4.8 -0.48,-2.04 -0.48,-4.8 0,-2.88 0.48,-4.8 h -7.2 q -0.48,-2.04 -0.48,-4.8 0,-2.88 0.48,-4.8 h 16.8 q 0.48,1.92 0.48,4.8 0,2.76 -0.48,4.8 0.48,1.92 0.48,4.8 0,2.76 -0.48,4.8 0.48,1.92 0.48,4.8 0,2.76 -0.48,4.8 0.48,1.92 0.48,4.8 0,2.76 -0.48,4.8 0.48,1.92 0.48,4.8 0,2.76 -0.48,4.8 0.48,1.92 0.48,4.8 0,2.76 -0.48,4.8 z m 53.27996,-24 q 0,2.76 -0.48,4.8 0.48,1.92 0.48,4.8 0,2.76 -0.48,4.8 h -25.2 q 0.48,1.92 0.48,4.8 0,2.76 -0.48,4.8 h 20.4 q 0.48,1.92 0.48,4.8 0,2.76 -0.48,4.8 h -24 q -0.48,-2.04 -0.48,-4.8 0,-2.88 0.48,-4.8 h -6 q -0.48,-2.04 -0.48,-4.8 0,-2.88 0.48,-4.8 h -3.6 q -0.48,-2.04 -0.48,-4.8 0,-2.88 0.48,-4.8 h 3.6 q -0.48,-2.04 -0.48,-4.8 0,-2.88 0.48,-4.8 h 6 q -0.48,-2.04 -0.48,-4.8 0,-2.88 0.48,-4.8 h 24 q 0.48,1.92 0.48,4.8 0,2.76 -0.48,4.8 h 4.8 q 0.48,1.92 0.48,4.8 z m -10.08,4.8 q -0.48,-2.04 -0.48,-4.8 0,-2.88 0.48,-4.8 h -15.6 q 0.48,1.92 0.48,4.8 0,2.76 -0.48,4.8 z m 57.59995,-9.6 q 0.48,1.92 0.48,4.8 0,2.76 -0.48,4.8 h -9.6 q -0.48,-2.04 -0.48,-4.8 0,-2.88 0.48,-4.8 h -8.4 q 0.48,1.92 0.48,4.8 0,2.76 -0.48,4.8 h -3.6 q 0.48,1.92 0.48,4.8 0,2.76 -0.48,4.8 0.48,1.92 0.48,4.8 0,2.76 -0.48,4.8 h 7.2 q 0.48,1.92 0.48,4.8 0,2.76 -0.48,4.8 h -24 q -0.48,-2.04 -0.48,-4.8 0,-2.88 0.48,-4.8 h 7.2 q -0.48,-2.04 -0.48,-4.8 0,-2.88 0.48,-4.8 -0.48,-2.04 -0.48,-4.8 0,-2.88 0.48,-4.8 -0.48,-2.04 -0.48,-4.8 0,-2.88 0.48,-4.8 h -7.2 q -0.48,-2.04 -0.48,-4.8 0,-2.88 0.48,-4.8 h 12 q 0.48,1.92 0.48,4.8 0,2.76 -0.48,4.8 h 4.8 q -0.48,-2.04 -0.48,-4.8 0,-2.88 0.48,-4.8 h 18 q 0.48,1.92 0.48,4.8 0,2.76 -0.48,4.8 z m 23.99996,-19.2 q -0.48,-2.04 -0.48,-4.8 0,-2.88 0.48,-4.8 h 9.6 q 0.48,1.92 0.48,4.8 0,2.76 -0.48,4.8 z m 19.2,48 q 0.48,1.92 0.48,4.8 0,2.76 -0.48,4.8 h -28.8 q -0.48,-2.04 -0.48,-4.8 0,-2.88 0.48,-4.8 h 9.6 q -0.48,-2.04 -0.48,-4.8 0,-2.88 0.48,-4.8 -0.48,-2.04 -0.48,-4.8 0,-2.88 0.48,-4.8 -0.48,-2.04 -0.48,-4.8 0,-2.88 0.48,-4.8 h -7.2 q -0.48,-2.04 -0.48,-4.8 0,-2.88 0.48,-4.8 h 16.8 q 0.48,1.92 0.48,4.8 0,2.76 -0.48,4.8 0.48,1.92 0.48,4.8 0,2.76 -0.48,4.8 0.48,1.92 0.48,4.8 0,2.76 -0.48,4.8 0.48,1.92 0.48,4.8 0,2.76 -0.48,4.8 z m 52.79996,0 q 0.48,1.92 0.48,4.8 0,2.76 -0.48,4.8 h -9.6 q -0.48,-2.04 -0.48,-4.8 0,-2.88 0.48,-4.8 h -4.8 q -0.48,-2.04 -0.48,-4.8 0,-2.88 0.48,-4.8 h -14.4 q 0.48,1.92 0.48,4.8 0,2.76 -0.48,4.8 h 14.4 q 0.48,1.92 0.48,4.8 0,2.76 -0.48,4.8 h -19.2 q -0.48,-2.04 -0.48,-4.8 0,-2.88 0.48,-4.8 h -4.8 q -0.48,-2.04 -0.48,-4.8 0,-2.88 0.48,-4.8 h 4.8 q -0.48,-2.04 -0.48,-4.8 0,-2.88 0.48,-4.8 h 19.2 q -0.48,-2.04 -0.48,-4.8 0,-2.88 0.48,-4.8 h -16.8 q -0.48,-2.04 -0.48,-4.8 0,-2.88 0.48,-4.8 h 21.6 q 0.48,1.92 0.48,4.8 0,2.76 -0.48,4.8 h 4.8 q 0.48,1.92 0.48,4.8 0,2.76 -0.48,4.8 0.48,1.92 0.48,4.8 0,2.76 -0.48,4.8 0.48,1.92 0.48,4.8 0,2.76 -0.48,4.8 z m 18.47994,-33.6 q 0,2.76 -0.48,4.8 h 4.8 q 0.48,1.92 0.48,4.8 0,2.76 -0.48,4.8 h -3.6 q 0.48,1.92 0.48,4.8 0,2.76 -0.48,4.8 0.48,1.92 0.48,4.8 0,2.76 -0.48,4.8 0.48,1.92 0.48,4.8 0,2.76 -0.48,4.8 h -9.6 q -0.48,-2.04 -0.48,-4.8 0,-2.88 0.48,-4.8 -0.48,-2.04 -0.48,-4.8 0,-2.88 0.48,-4.8 -0.48,-2.04 -0.48,-4.8 0,-2.88 0.48,-4.8 -0.48,-2.04 -0.48,-4.8 0,-2.88 0.48,-4.8 -0.48,-2.04 -0.48,-4.8 0,-2.88 0.48,-4.8 h 8.4 q 0.48,1.92 0.48,4.8 z m 29.52,14.4 q 0.48,1.92 0.48,4.8 0,2.76 -0.48,4.8 0.48,1.92 0.48,4.8 0,2.76 -0.48,4.8 0.48,1.92 0.48,4.8 0,2.76 -0.48,4.8 h -9.6 q -0.48,-2.04 -0.48,-4.8 0,-2.88 0.48,-4.8 -0.48,-2.04 -0.48,-4.8 0,-2.88 0.48,-4.8 -0.48,-2.04 -0.48,-4.8 0,-2.88 0.48,-4.8 -0.48,-2.04 -0.48,-4.8 0,-2.88 0.48,-4.8 h -15.6 q -0.48,-2.04 -0.48,-4.8 0,-2.88 0.48,-4.8 h 19.2 q 0.48,1.92 0.48,4.8 0,2.76 -0.48,4.8 h 6 q 0.48,1.92 0.48,4.8 0,2.76 -0.48,4.8 z"
            aria-label="Keplerian" />
        <circle fill="#fc0b" stroke="#ff0" stroke-width="12" r="40" cx="80" cy="250" />
        <path
            d="m 179.2,249.6 q 0.48,1.92 0.48,4.8 0,2.76 -0.48,4.8 h -9.6 q -0.48,-2.04 -0.48,-4.8 0,-2.88 0.48,-4.8 h -8.4 q 0.48,1.92 0.48,4.8 0,2.76 -0.48,4.8 h -3.6 q 0.48,1.92 0.48,4.8 0,2.76 -0.48,4.8 0.48,1.92 0.48,4.8 0,2.76 -0.48,4.8 h 7.2 q 0.48,1.92 0.48,4.8 0,2.76 -0.48,4.8 h -24 q -0.48,-2.04 -0.48,-4.8 0,-2.88 0.48,-4.8 h 7.2 q -0.48,-2.04 -0.48,-4.8 0,-2.88 0.48,-4.8 -0.48,-2.04 -0.48,-4.8 0,-2.88 0.48,-4.8 -0.48,-2.04 -0.48,-4.8 0,-2.88 0.48,-4.8 h -7.2 q -0.48,-2.04 -0.48,-4.8 0,-2.88 0.48,-4.8 h 12 q 0.48,1.92 0.48,4.8 0,2.76 -0.48,4.8 h 4.8 q -0.48,-2.04 -0.48,-4.8 0,-2.88 0.48,-4.8 h 18 q 0.48,1.92 0.48,4.8 0,2.76 -0.48,4.8 z m 19.19995,19.2 q 0.48,1.92 0.48,4.8 0,2.76 -0.48,4.8 h -4.8 q 0.48,1.92 0.48,4.8 0,2.76 -0.48,4.8 h -4.8 q -0.48,-2.04 -0.48,-4.8 0,-2.88 0.48,-4.8 -0.48,-2.04 -0.48,-4.8 0,-2.88 0.48,-4.8 -0.48,-2.04 -0.48,-4.8 0,-2.88 0.48,-4.8 -0.48,-2.04 -0.48,-4.8 0,-2.88 0.48,-4.8 -0.48,-2.04 -0.48,-4.8 0,-2.88 0.48,-4.8 -0.48,-2.04 -0.48,-4.8 0,-2.88 0.48,-4.8 -0.48,-2.04 -0.48,-4.8 0,-2.88 0.48,-4.8 h 9.6 q 0.48,1.92 0.48,4.8 0,2.76 -0.48,4.8 0.48,1.92 0.48,4.8 0,2.76 -0.48,4.8 0.48,1.92 0.48,4.8 0,2.76 -0.48,4.8 h 4.8 q 0.48,1.92 0.48,4.8 0,2.76 -0.48,4.8 h -4.8 q 0.48,1.92 0.48,4.8 0,2.76 -0.48,4.8 z m 29.28,-4.8 q 0,2.76 -0.48,4.8 h -4.8 q 0.48,1.92 0.48,4.8 0,2.76 -0.48,4.8 h -9.6 q -0.48,-2.04 -0.48,-4.8 0,-2.88 0.48,-4.8 h 4.8 q -0.48,-2.04 -0.48,-4.8 0,-2.88 0.48,-4.8 h -4.8 q -0.48,-2.04 -0.48,-4.8 0,-2.88 0.48,-4.8 h -9.6 q -0.48,-2.04 -0.48,-4.8 0,-2.88 0.48,-4.8 h 14.4 q 0.48,1.92 0.48,4.8 0,2.76 -0.48,4.8 h 4.8 q 0.48,1.92 0.48,4.8 0,2.76 -0.48,4.8 h 4.8 q 0.48,1.92 0.48,4.8 z m -29.76,19.2 q 0,-2.88 0.48,-4.8 h 14.4 q 0.48,1.92 0.48,4.8 0,2.76 -0.48,4.8 h -14.4 q -0.48,-2.04 -0.48,-4.8 z m 53.27996,-52.8 q -0.48,-2.04 -0.48,-4.8 0,-2.88 0.48,-4.8 h 9.6 q 0.48,1.92 0.48,4.8 0,2.76 -0.48,4.8 z m 19.2,48 q 0.48,1.92 0.48,4.8 0,2.76 -0.48,4.8 h -28.8 q -0.48,-2.04 -0.48,-4.8 0,-2.88 0.48,-4.8 h 9.6 q -0.48,-2.04 -0.48,-4.8 0,-2.88 0.48,-4.8 -0.48,-2.04 -0.48,-4.8 0,-2.88 0.48,-4.8 -0.48,-2.04 -0.48,-4.8 0,-2.88 0.48,-4.8 h -7.2 q -0.48,-2.04 -0.48,-4.8 0,-2.88 0.48,-4.8 h 16.8 q 0.48,1.92 0.48,4.8 0,2.76 -0.48,4.8 0.48,1.92 0.48,4.8 0,2.76 -0.48,4.8 0.48,1.92 0.48,4.8 0,2.76 -0.48,4.8 0.48,1.92 0.48,4.8 0,2.76 -0.48,4.8 z m 47.99995,0 q 0.48,1.92 0.48,4.8 0,2.76 -0.48,4.8 h -19.2 q -0.48,-2.04 -0.48,-4.8 0,-2.88 0.48,-4.8 h -4.8 q -0.48,-2.04 -0.48,-4.8 0,-2.88 0.48,-4.8 -0.48,-2.04 -0.48,-4.8 0,-2.88 0.48,-4.8 -0.48,-2.04 -0.48,-4.8 0,-2.88 0.48,-4.8 h -9.6 q -0.48,-2.04 -0.48,-4.8 0,-2.88 0.48,-4.8 h 9.6 q -0.48,-2.04 -0.48,-4.8 0,-2.88 0.48,-4.8 -0.48,-2.04 -0.48,-4.8 0,-2.88 0.48,-4.8 h 9.6 q 0.48,1.92 0.48,4.8 0,2.76 -0.48,4.8 0.48,1.92 0.48,4.8 0,2.76 -0.48,4.8 h 14.4 q 0.48,1.92 0.48,4.8 0,2.76 -0.48,4.8 h -14.4 q 0.48,1.92 0.48,4.8 0,2.76 -0.48,4.8 0.48,1.92 0.48,4.8 0,2.76 -0.48,4.8 0.48,1.92 0.48,4.8 0,2.76 -0.48,4.8 z m 52.79996,0 q 0.48,1.92 0.48,4.8 0,2.76 -0.48,4.8 h -9.6 q -0.48,-2.04 -0.48,-4.8 0,-2.88 0.48,-4.8 h -4.8 q -0.48,-2.04 -0.48,-4.8 0,-2.88 0.48,-4.8 h -14.4 q 0.48,1.92 0.48,4.8 0,2.76 -0.48,4.8 h 14.4 q 0.48,1.92 0.48,4.8 0,2.76 -0.48,4.8 h -19.2 q -0.48,-2.04 -0.48,-4.8 0,-2.88 0.48,-4.8 h -4.8 q -0.48,-2.04 -0.48,-4.8 0,-2.88 0.48,-4.8 h 4.8 q -0.48,-2.04 -0.48,-4.8 0,-2.88 0.48,-4.8 h 19.2 q -0.48,-2.04 -0.48,-4.8 0,-2.88 0.48,-4.8 h -16.8 q -0.48,-2.04 -0.48,-4.8 0,-2.88 0.48,-4.8 h 21.6 q 0.48,1.92 0.48,4.8 0,2.76 -0.48,4.8 h 4.8 q 0.48,1.92 0.48,4.8 0,2.76 -0.48,4.8 0.48,1.92 0.48,4.8 0,2.76 -0.48,4.8 0.48,1.92 0.48,4.8 0,2.76 -0.48,4.8 z m 43.19995,0 q 0.48,1.92 0.48,4.8 0,2.76 -0.48,4.8 h -28.8 q -0.48,-2.04 -0.48,-4.8 0,-2.88 0.48,-4.8 h 9.6 q -0.48,-2.04 -0.48,-4.8 0,-2.88 0.48,-4.8 -0.48,-2.04 -0.48,-4.8 0,-2.88 0.48,-4.8 -0.48,-2.04 -0.48,-4.8 0,-2.88 0.48,-4.8 -0.48,-2.04 -0.48,-4.8 0,-2.88 0.48,-4.8 -0.48,-2.04 -0.48,-4.8 0,-2.88 0.48,-4.8 h -7.2 q -0.48,-2.04 -0.48,-4.8 0,-2.88 0.48,-4.8 h 16.8 q 0.48,1.92 0.48,4.8 0,2.76 -0.48,4.8 0.48,1.92 0.48,4.8 0,2.76 -0.48,4.8 0.48,1.92 0.48,4.8 0,2.76 -0.48,4.8 0.48,1.92 0.48,4.8 0,2.76 -0.48,4.8 0.48,1.92 0.48,4.8 0,2.76 -0.48,4.8 0.48,1.92 0.48,4.8 0,2.76 -0.48,4.8 z"
            style="fill:#ffff00" aria-label="Orbital" />
        <path
            d="m 83.2,380.4 q 0.48,1.92 0.48,4.8 0,2.76 -0.48,4.8 0.48,1.92 0.48,4.8 0,2.76 -0.48,4.8 0.48,1.92 0.48,4.8 0,2.76 -0.48,4.8 0.48,1.92 0.48,4.8 0,2.76 -0.48,4.8 0.48,1.92 0.48,4.8 0,2.76 -0.48,4.8 0.48,1.92 0.48,4.8 0,2.76 -0.48,4.8 h -9.6 q -0.48,-2.04 -0.48,-4.8 0,-2.88 0.48,-4.8 -0.48,-2.04 -0.48,-4.8 0,-2.88 0.48,-4.8 -0.48,-2.04 -0.48,-4.8 0,-2.88 0.48,-4.8 -0.48,-2.04 -0.48,-4.8 0,-2.88 0.48,-4.8 -0.48,-2.04 -0.48,-4.8 0,-2.88 0.48,-4.8 H 70 q 0.48,1.92 0.48,4.8 0,2.76 -0.48,4.8 0.48,1.92 0.48,4.8 0,2.76 -0.48,4.8 h -2.4 q 0.48,1.92 0.48,4.8 0,2.76 -0.48,4.8 0.48,1.92 0.48,4.8 0,2.76 -0.48,4.8 h -7.2 q -0.48,-2.04 -0.48,-4.8 0,-2.88 0.48,-4.8 -0.48,-2.04 -0.48,-4.8 0,-2.88 0.48,-4.8 H 58 q -0.48,-2.04 -0.48,-4.8 0,-2.88 0.48,-4.8 -0.48,-2.04 -0.48,-4.8 0,-2.88 0.48,-4.8 h -3.6 q 0.48,1.92 0.48,4.8 0,2.76 -0.48,4.8 0.48,1.92 0.48,4.8 0,2.76 -0.48,4.8 0.48,1.92 0.48,4.8 0,2.76 -0.48,4.8 0.48,1.92 0.48,4.8 0,2.76 -0.48,4.8 0.48,1.92 0.48,4.8 0,2.76 -0.48,4.8 h -9.6 q -0.48,-2.04 -0.48,-4.8 0,-2.88 0.48,-4.8 -0.48,-2.04 -0.48,-4.8 0,-2.88 0.48,-4.8 -0.48,-2.04 -0.48,-4.8 0,-2.88 0.48,-4.8 -0.48,-2.04 -0.48,-4.8 0,-2.88 0.48,-4.8 -0.48,-2.04 -0.48,-4.8 0,-2.88 0.48,-4.8 -0.48,-2.04 -0.48,-4.8 0,-2.88 0.48,-4.8 -0.48,-2.04 -0.48,-4.8 0,-2.88 0.48,-4.8 h 12 q 0.48,1.92 0.48,4.8 0,2.76 -0.48,4.8 h 3.6 q 0.48,1.92 0.48,4.8 0,2.76 -0.48,4.8 h 1.8 q 0.48,1.92 0.48,4.8 0,2.76 -0.48,4.8 h 3.6 q -0.48,-2.04 -0.48,-4.8 0,-2.88 0.48,-4.8 h 1.8 q -0.48,-2.04 -0.48,-4.8 0,-2.88 0.48,-4.8 h 3.6 q -0.48,-2.04 -0.48,-4.8 0,-2.88 0.48,-4.8 h 12 q 0.48,1.92 0.48,4.8 0,2.76 -0.48,4.8 z m 48.47995,24 q 0,2.76 -0.48,4.8 0.48,1.92 0.48,4.8 0,2.76 -0.48,4.8 h -25.2 q 0.48,1.92 0.48,4.8 0,2.76 -0.48,4.8 h 20.4 q 0.48,1.92 0.48,4.8 0,2.76 -0.48,4.8 h -24 q -0.48,-2.04 -0.48,-4.8 0,-2.88 0.48,-4.8 h -5.999996 q -0.48,-2.04 -0.48,-4.8 0,-2.88 0.48,-4.8 h -3.6 q -0.48,-2.04 -0.48,-4.8 0,-2.88 0.48,-4.8 h 3.6 q -0.48,-2.04 -0.48,-4.8 0,-2.88 0.48,-4.8 h 5.999996 q -0.48,-2.04 -0.48,-4.8 0,-2.88 0.48,-4.8 h 24 q 0.48,1.92 0.48,4.8 0,2.76 -0.48,4.8 h 4.8 q 0.48,1.92 0.48,4.8 z m -10.08,4.8 q -0.48,-2.04 -0.48,-4.8 0,-2.88 0.48,-4.8 h -15.6 q 0.48,1.92 0.48,4.8 0,2.76 -0.48,4.8 z m 57.59996,9.6 q 0.48,1.92 0.48,4.8 0,2.76 -0.48,4.8 h -4.8 q 0.48,1.92 0.48,4.8 0,2.76 -0.48,4.8 h -24 q -0.48,-2.04 -0.48,-4.8 0,-2.88 0.48,-4.8 h -4.8 q -0.48,-2.04 -0.48,-4.8 0,-2.88 0.48,-4.8 h -4.8 q -0.48,-2.04 -0.48,-4.8 0,-2.88 0.48,-4.8 h 4.8 q -0.48,-2.04 -0.48,-4.8 0,-2.88 0.48,-4.8 h 4.8 q -0.48,-2.04 -0.48,-4.8 0,-2.88 0.48,-4.8 h 24 q 0.48,1.92 0.48,4.8 0,2.76 -0.48,4.8 h 4.8 q 0.48,1.92 0.48,4.8 0,2.76 -0.48,4.8 h -9.6 q -0.48,-2.04 -0.48,-4.8 0,-2.88 0.48,-4.8 h -14.4 q 0.48,1.92 0.48,4.8 0,2.76 -0.48,4.8 h -4.8 q 0.48,1.92 0.48,4.8 0,2.76 -0.48,4.8 h 4.8 q 0.48,1.92 0.48,4.8 0,2.76 -0.48,4.8 h 14.4 q -0.48,-2.04 -0.48,-4.8 0,-2.88 0.48,-4.8 z m 19.67995,-24 q 0,2.76 -0.48,4.8 h 3.6 q 0.48,1.92 0.48,4.8 0,2.76 -0.48,4.8 h -3.6 q 0.48,1.92 0.48,4.8 0,2.76 -0.48,4.8 0.48,1.92 0.48,4.8 0,2.76 -0.48,4.8 0.48,1.92 0.48,4.8 0,2.76 -0.48,4.8 h -9.6 q -0.48,-2.04 -0.48,-4.8 0,-2.88 0.48,-4.8 -0.48,-2.04 -0.48,-4.8 0,-2.88 0.48,-4.8 -0.48,-2.04 -0.48,-4.8 0,-2.88 0.48,-4.8 -0.48,-2.04 -0.48,-4.8 0,-2.88 0.48,-4.8 -0.48,-2.04 -0.48,-4.8 0,-2.88 0.48,-4.8 -0.48,-2.04 -0.48,-4.8 0,-2.88 0.48,-4.8 -0.48,-2.04 -0.48,-4.8 0,-2.88 0.48,-4.8 h 9.6 q 0.48,1.92 0.48,4.8 0,2.76 -0.48,4.8 0.48,1.92 0.48,4.8 0,2.76 -0.48,4.8 0.48,1.92 0.48,4.8 z m 28.32,14.4 q 0.48,1.92 0.48,4.8 0,2.76 -0.48,4.8 0.48,1.92 0.48,4.8 0,2.76 -0.48,4.8 0.48,1.92 0.48,4.8 0,2.76 -0.48,4.8 h -9.6 q -0.48,-2.04 -0.48,-4.8 0,-2.88 0.48,-4.8 -0.48,-2.04 -0.48,-4.8 0,-2.88 0.48,-4.8 -0.48,-2.04 -0.48,-4.8 0,-2.88 0.48,-4.8 -0.48,-2.04 -0.48,-4.8 0,-2.88 0.48,-4.8 h -15.6 q -0.48,-2.04 -0.48,-4.8 0,-2.88 0.48,-4.8 h 19.2 q 0.48,1.92 0.48,4.8 0,2.76 -0.48,4.8 h 6 q 0.48,1.92 0.48,4.8 0,2.76 -0.48,4.8 z m 47.99996,19.2 q 0.48,1.92 0.48,4.8 0,2.76 -0.48,4.8 h -9.6 q -0.48,-2.04 -0.48,-4.8 0,-2.88 0.48,-4.8 h -4.8 q -0.48,-2.04 -0.48,-4.8 0,-2.88 0.48,-4.8 h -14.4 q 0.48,1.92 0.48,4.8 0,2.76 -0.48,4.8 h 14.4 q 0.48,1.92 0.48,4.8 0,2.76 -0.48,4.8 h -19.2 q -0.48,-2.04 -0.48,-4.8 0,-2.88 0.48,-4.8 h -4.8 q -0.48,-2.04 -0.48,-4.8 0,-2.88 0.48,-4.8 h 4.8 q -0.48,-2.04 -0.48,-4.8 0,-2.88 0.48,-4.8 h 19.2 q -0.48,-2.04 -0.48,-4.8 0,-2.88 0.48,-4.8 h -16.8 q -0.48,-2.04 -0.48,-4.8 0,-2.88 0.48,-4.8 h 21.6 q 0.48,1.92 0.48,4.8 0,2.76 -0.48,4.8 h 4.8 q 0.48,1.92 0.48,4.8 0,2.76 -0.48,4.8 0.48,1.92 0.48,4.8 0,2.76 -0.48,4.8 0.48,1.92 0.48,4.8 0,2.76 -0.48,4.8 z m 18.47995,-33.6 q 0,2.76 -0.48,4.8 h 4.8 q 0.48,1.92 0.48,4.8 0,2.76 -0.48,4.8 h -3.6 q 0.48,1.92 0.48,4.8 0,2.76 -0.48,4.8 0.48,1.92 0.48,4.8 0,2.76 -0.48,4.8 0.48,1.92 0.48,4.8 0,2.76 -0.48,4.8 h -9.6 q -0.48,-2.04 -0.48,-4.8 0,-2.88 0.48,-4.8 -0.48,-2.04 -0.48,-4.8 0,-2.88 0.48,-4.8 -0.48,-2.04 -0.48,-4.8 0,-2.88 0.48,-4.8 -0.48,-2.04 -0.48,-4.8 0,-2.88 0.48,-4.8 -0.48,-2.04 -0.48,-4.8 0,-2.88 0.48,-4.8 h 8.4 q 0.48,1.92 0.48,4.8 z m 29.52,14.4 q 0.48,1.92 0.48,4.8 0,2.76 -0.48,4.8 0.48,1.92 0.48,4.8 0,2.76 -0.48,4.8 0.48,1.92 0.48,4.8 0,2.76 -0.48,4.8 h -9.6 q -0.48,-2.04 -0.48,-4.8 0,-2.88 0.48,-4.8 -0.48,-2.04 -0.48,-4.8 0,-2.88 0.48,-4.8 -0.48,-2.04 -0.48,-4.8 0,-2.88 0.48,-4.8 -0.48,-2.04 -0.48,-4.8 0,-2.88 0.48,-4.8 h -15.6 q -0.48,-2.04 -0.48,-4.8 0,-2.88 0.48,-4.8 h 19.2 q 0.48,1.92 0.48,4.8 0,2.76 -0.48,4.8 h 6 q 0.48,1.92 0.48,4.8 0,2.76 -0.48,4.8 z m 23.99996,-28.8 q -0.48,-2.04 -0.48,-4.8 0,-2.88 0.48,-4.8 h 9.6 q 0.48,1.92 0.48,4.8 0,2.76 -0.48,4.8 z m 19.2,48 q 0.48,1.92 0.48,4.8 0,2.76 -0.48,4.8 h -28.8 q -0.48,-2.04 -0.48,-4.8 0,-2.88 0.48,-4.8 h 9.6 q -0.48,-2.04 -0.48,-4.8 0,-2.88 0.48,-4.8 -0.48,-2.04 -0.48,-4.8 0,-2.88 0.48,-4.8 -0.48,-2.04 -0.48,-4.8 0,-2.88 0.48,-4.8 h -7.2 q -0.48,-2.04 -0.48,-4.8 0,-2.88 0.48,-4.8 h 16.8 q 0.48,1.92 0.48,4.8 0,2.76 -0.48,4.8 0.48,1.92 0.48,4.8 0,2.76 -0.48,4.8 0.48,1.92 0.48,4.8 0,2.76 -0.48,4.8 0.48,1.92 0.48,4.8 0,2.76 -0.48,4.8 z m 52.79996,-9.6 q 0.48,1.92 0.48,4.8 0,2.76 -0.48,4.8 h -4.8 q 0.48,1.92 0.48,4.8 0,2.76 -0.48,4.8 h -24 q -0.48,-2.04 -0.48,-4.8 0,-2.88 0.48,-4.8 h -4.8 q -0.48,-2.04 -0.48,-4.8 0,-2.88 0.48,-4.8 h -4.8 q -0.48,-2.04 -0.48,-4.8 0,-2.88 0.48,-4.8 h 4.8 q -0.48,-2.04 -0.48,-4.8 0,-2.88 0.48,-4.8 h 4.8 q -0.48,-2.04 -0.48,-4.8 0,-2.88 0.48,-4.8 h 24 q 0.48,1.92 0.48,4.8 0,2.76 -0.48,4.8 h 4.8 q 0.48,1.92 0.48,4.8 0,2.76 -0.48,4.8 h -9.6 q -0.48,-2.04 -0.48,-4.8 0,-2.88 0.48,-4.8 h -14.4 q 0.48,1.92 0.48,4.8 0,2.76 -0.48,4.8 h -4.8 q 0.48,1.92 0.48,4.8 0,2.76 -0.48,4.8 h 4.8 q 0.48,1.92 0.48,4.8 0,2.76 -0.48,4.8 h 14.4 q -0.48,-2.04 -0.48,-4.8 0,-2.88 0.48,-4.8 z m 46.07994,4.8 q 0,2.76 -0.48,4.8 h -4.8 q 0.48,1.92 0.48,4.8 0,2.76 -0.48,4.8 h -26.4 q -0.48,-2.04 -0.48,-4.8 0,-2.88 0.48,-4.8 h 21.6 q -0.48,-2.04 -0.48,-4.8 0,-2.88 0.48,-4.8 h -19.2 q -0.48,-2.04 -0.48,-4.8 0,-2.88 0.48,-4.8 h -4.8 q -0.48,-2.04 -0.48,-4.8 0,-2.88 0.48,-4.8 h 4.8 q -0.48,-2.04 -0.48,-4.8 0,-2.88 0.48,-4.8 h 26.4 q 0.48,1.92 0.48,4.8 0,2.76 -0.48,4.8 h -21.6 q 0.48,1.92 0.48,4.8 0,2.76 -0.48,4.8 h 19.2 q 0.48,1.92 0.48,4.8 0,2.76 -0.48,4.8 h 4.8 q 0.48,1.92 0.48,4.8 z"
            aria-label="Mechanics" />
    </g>

    <g fill="#fff">
        <g aria-label="A Rust library for space sims!">
            <path
                d="m 612.07976,369.76 h 5.292 l 7.98,30.24 h -4.032 l -2.1,-8.526 h -9.282 l -2.142,8.526 h -3.948 z m 6.384,18.564 -2.94,-11.97 q -0.21,-0.882 -0.378,-1.596 -0.168,-0.756 -0.252,-1.344 -0.084,-0.63 -0.168,-1.134 h -0.168 q -0.084,0.504 -0.21,1.134 -0.084,0.588 -0.252,1.344 -0.168,0.714 -0.378,1.596 l -2.982,11.97 z" />
            <path fill="#f74c00"
                d="m 656.17979,369.76 h 9.66 q 2.058,0 3.738,0.63 1.68,0.63 2.856,1.806 1.218,1.176 1.848,2.814 0.672,1.596 0.672,3.57 0,3.15 -1.638,5.376 -1.596,2.184 -4.368,3.024 l 6.426,13.02 h -4.452 l -5.88,-12.6 h -5.082 V 400 h -3.78 z m 3.78,14.28 h 5.88 q 2.394,0 3.78,-1.47 1.428,-1.512 1.428,-3.99 0,-2.478 -1.428,-3.948 -1.428,-1.512 -3.78,-1.512 h -5.88 z m 25.20002,-7.14 v 14.952 q 0,5.25 4.998,5.25 5.082,0 5.082,-5.25 V 376.9 h 3.78 v 14.952 q 0,4.116 -2.31,6.342 -2.268,2.226 -6.552,2.226 -4.2,0 -6.51,-2.226 -2.268,-2.268 -2.268,-6.342 V 376.9 Z m 20.87401,17.43 h 3.99 q 0.252,1.218 1.554,1.974 1.302,0.756 3.192,0.756 h 1.176 q 2.268,0 3.528,-0.924 1.26,-0.966 1.26,-2.562 0,-2.73 -3.864,-3.318 l -3.486,-0.504 q -3.402,-0.504 -5.082,-2.142 -1.68,-1.638 -1.68,-4.578 0,-3.108 2.184,-4.83 2.226,-1.722 6.174,-1.722 h 1.176 q 1.68,0 3.108,0.42 1.428,0.42 2.52,1.218 1.092,0.756 1.764,1.848 0.714,1.05 0.924,2.352 h -3.99 q -0.252,-1.092 -1.428,-1.764 -1.176,-0.714 -2.898,-0.714 h -1.176 q -2.142,0 -3.36,0.84 -1.176,0.84 -1.176,2.52 0,1.344 0.798,2.058 0.84,0.672 2.688,0.924 l 3.486,0.504 q 3.738,0.546 5.418,2.184 1.722,1.638 1.722,4.662 0,3.234 -2.268,5.082 -2.226,1.806 -6.342,1.806 h -1.176 q -3.654,0 -6.048,-1.638 -2.352,-1.68 -2.688,-4.452 z m 24.48602,-17.43 h 6.72 v -7.14 h 3.78 v 7.14 h 9.03 v 3.444 h -9.03 v 13.692 q 0,1.176 0.714,1.848 0.756,0.672 2.016,0.672 h 5.88 V 400 h -5.88 q -2.982,0 -4.746,-1.638 -1.764,-1.638 -1.764,-4.326 v -13.692 h -6.72 z" />
            <path
                d="m 780.07988,372.784 v -3.444 h 11.424 v 23.94 q 0,1.554 0.84,2.436 0.84,0.84 2.31,0.84 h 6.846 V 400 h -6.846 q -3.234,0 -5.082,-1.764 -1.848,-1.806 -1.848,-4.956 V 372.784 Z M 807.58989,400 v -3.444 h 8.4 v -16.212 h -7.35 V 376.9 h 11.13 v 19.656 h 6.93 V 400 Z m 9.24,-32.13 h 0.84 q 1.218,0 1.974,0.714 0.756,0.714 0.756,1.848 0,1.134 -0.756,1.806 -0.756,0.672 -1.974,0.672 h -0.84 q -1.218,0 -1.974,-0.63 -0.756,-0.672 -0.756,-1.848 0,-1.134 0.756,-1.848 0.756,-0.714 1.974,-0.714 z m 15.66601,1.89 h 3.78 v 6.72 q 0,0.588 -0.042,1.386 0,0.756 -0.042,1.428 -0.084,0.798 -0.126,1.596 h 0.336 q 0.546,-2.1 2.226,-3.234 1.68,-1.176 4.242,-1.176 1.764,0 3.192,0.63 1.428,0.63 2.436,1.806 1.008,1.134 1.554,2.814 0.588,1.68 0.588,3.78 v 5.88 q 0,2.1 -0.588,3.78 -0.546,1.68 -1.554,2.856 -1.008,1.134 -2.436,1.764 -1.428,0.63 -3.192,0.63 -2.562,0 -4.242,-1.134 -1.68,-1.176 -2.226,-3.276 h -0.336 V 400 h -3.57 z m 3.78,21.63 q 0,2.646 1.386,4.2 1.428,1.554 3.78,1.554 2.52,0 3.948,-1.554 1.47,-1.554 1.47,-4.2 v -5.88 q 0,-2.73 -1.428,-4.242 -1.428,-1.512 -3.99,-1.512 -2.352,0 -3.78,1.554 -1.386,1.554 -1.386,4.2 z m 25.99801,-14.49 v 3.99 h 0.336 q 0.546,-2.058 2.268,-3.234 1.722,-1.176 4.242,-1.176 3.654,0 5.712,2.31 2.1,2.268 2.1,6.258 v 1.302 h -3.78 v -0.84 q 0,-2.73 -1.386,-4.2 -1.344,-1.512 -3.864,-1.512 -2.478,0 -3.948,1.554 -1.47,1.512 -1.47,4.158 V 400 h -3.78 v -23.1 z m 19.57201,16.38 q 0,-1.638 0.546,-2.94 0.588,-1.344 1.638,-2.268 1.092,-0.924 2.604,-1.428 1.512,-0.504 3.402,-0.504 h 6.888 v -1.89 q 0,-2.142 -1.428,-3.318 -1.386,-1.218 -4.032,-1.218 -1.932,0 -3.318,0.714 -1.344,0.714 -1.806,1.974 h -3.78 q 0.588,-2.73 2.982,-4.326 2.436,-1.596 6.006,-1.596 4.284,0 6.72,2.016 2.436,1.974 2.436,5.544 V 400 h -3.444 v -4.41 h -0.336 q -0.546,2.226 -2.562,3.528 -2.016,1.302 -4.914,1.302 -3.486,0 -5.544,-1.932 -2.058,-1.932 -2.058,-5.208 z m 3.78,-0.084 q 0,1.932 1.218,3.024 1.218,1.092 3.444,1.092 1.428,0 2.646,-0.378 1.218,-0.378 2.1,-1.05 0.882,-0.714 1.386,-1.638 0.504,-0.924 0.504,-2.016 v -3.15 h -6.804 q -2.1,0 -3.318,1.092 -1.176,1.092 -1.176,3.024 z M 912.67397,376.9 v 3.99 h 0.336 q 0.546,-2.058 2.268,-3.234 1.722,-1.176 4.242,-1.176 3.654,0 5.712,2.31 2.1,2.268 2.1,6.258 v 1.302 h -3.78 v -0.84 q 0,-2.73 -1.386,-4.2 -1.344,-1.512 -3.864,-1.512 -2.478,0 -3.948,1.554 -1.47,1.512 -1.47,4.158 V 400 h -3.78 v -23.1 z m 19.02601,0 h 4.2 l 5.292,13.272 q 0.378,0.966 0.588,1.806 0.252,0.84 0.378,1.47 0.168,0.798 0.21,1.428 h 0.294 q 0.042,-0.63 0.21,-1.386 0.126,-0.672 0.336,-1.512 0.21,-0.84 0.546,-1.806 l 4.872,-13.272 h 4.074 l -11.256,30.24 h -4.032 l 3.234,-8.82 z" />
            <path
                d="m 578.51976,442.654 v -3.444 h 6.72 v -3.57 q 0,-2.772 1.722,-4.326 1.722,-1.554 4.746,-1.554 h 6.762 v 3.444 h -6.762 q -2.688,0 -2.688,2.436 v 3.57 h 9.45 v 3.444 h -9.45 V 460 h -3.78 v -17.346 z m 35.28002,17.766 q -2.142,0 -3.864,-0.63 -1.68,-0.63 -2.898,-1.806 -1.176,-1.176 -1.848,-2.856 -0.63,-1.68 -0.63,-3.738 v -5.88 q 0,-2.1 0.63,-3.738 0.672,-1.68 1.848,-2.856 1.218,-1.176 2.898,-1.806 1.722,-0.63 3.864,-0.63 4.284,0 6.762,2.394 2.478,2.394 2.478,6.594 v 5.922 q 0,4.2 -2.478,6.636 -2.436,2.394 -6.762,2.394 z m -5.46,-9.03 q 0,2.646 1.428,4.158 1.47,1.512 4.032,1.512 2.52,0 3.99,-1.512 1.47,-1.512 1.47,-4.158 v -5.88 q 0,-2.646 -1.47,-4.158 -1.47,-1.512 -3.99,-1.512 -2.52,0 -3.99,1.512 -1.47,1.512 -1.47,4.158 z m 26.33401,-14.49 v 3.99 h 0.336 q 0.546,-2.058 2.268,-3.234 1.722,-1.176 4.242,-1.176 3.654,0 5.712,2.31 2.1,2.268 2.1,6.258 v 1.302 h -3.78 v -0.84 q 0,-2.73 -1.386,-4.2 -1.344,-1.512 -3.864,-1.512 -2.478,0 -3.948,1.554 -1.47,1.512 -1.47,4.158 V 460 h -3.78 v -23.1 z m 45.36003,17.43 h 3.99 q 0.252,1.218 1.554,1.974 1.302,0.756 3.192,0.756 h 1.176 q 2.268,0 3.528,-0.924 1.26,-0.966 1.26,-2.562 0,-2.73 -3.864,-3.318 l -3.486,-0.504 q -3.402,-0.504 -5.082,-2.142 -1.68,-1.638 -1.68,-4.578 0,-3.108 2.184,-4.83 2.226,-1.722 6.174,-1.722 h 1.176 q 1.68,0 3.108,0.42 1.428,0.42 2.52,1.218 1.092,0.756 1.764,1.848 0.714,1.05 0.924,2.352 h -3.99 q -0.252,-1.092 -1.428,-1.764 -1.176,-0.714 -2.898,-0.714 h -1.176 q -2.142,0 -3.36,0.84 -1.176,0.84 -1.176,2.52 0,1.344 0.798,2.058 0.84,0.672 2.688,0.924 l 3.486,0.504 q 3.738,0.546 5.418,2.184 1.722,1.638 1.722,4.662 0,3.234 -2.268,5.082 -2.226,1.806 -6.342,1.806 h -1.176 q -3.654,0 -6.048,-1.638 -2.352,-1.68 -2.688,-4.452 z m 25.66202,-17.43 h 3.57 v 3.99 h 0.336 q 0.546,-2.1 2.226,-3.234 1.68,-1.176 4.242,-1.176 1.764,0 3.192,0.63 1.428,0.63 2.436,1.806 1.008,1.134 1.554,2.814 0.588,1.68 0.588,3.78 v 5.88 q 0,2.1 -0.588,3.78 -0.546,1.68 -1.554,2.856 -1.008,1.134 -2.436,1.764 -1.428,0.63 -3.192,0.63 -2.562,0 -4.242,-1.134 -1.68,-1.176 -2.226,-3.276 h -0.336 q 0.042,0.714 0.126,1.428 0.042,0.63 0.042,1.302 0.042,0.672 0.042,1.26 v 7.14 h -3.78 z m 3.78,8.61 v 5.88 q 0,2.646 1.386,4.2 1.428,1.554 3.78,1.554 2.52,0 3.948,-1.554 1.47,-1.554 1.47,-4.2 v -5.88 q 0,-2.73 -1.428,-4.242 -1.428,-1.512 -3.99,-1.512 -2.352,0 -3.78,1.554 -1.386,1.554 -1.386,4.2 z m 20.37002,7.77 q 0,-1.638 0.546,-2.94 0.588,-1.344 1.638,-2.268 1.092,-0.924 2.604,-1.428 1.512,-0.504 3.402,-0.504 h 6.888 v -1.89 q 0,-2.142 -1.428,-3.318 -1.386,-1.218 -4.032,-1.218 -1.932,0 -3.318,0.714 -1.344,0.714 -1.806,1.974 h -3.78 q 0.588,-2.73 2.982,-4.326 2.436,-1.596 6.006,-1.596 4.284,0 6.72,2.016 2.436,1.974 2.436,5.544 V 460 h -3.444 v -4.41 h -0.336 q -0.546,2.226 -2.562,3.528 -2.016,1.302 -4.914,1.302 -3.486,0 -5.544,-1.932 -2.058,-1.932 -2.058,-5.208 z m 3.78,-0.084 q 0,1.932 1.218,3.024 1.218,1.092 3.444,1.092 1.428,0 2.646,-0.378 1.218,-0.378 2.1,-1.05 0.882,-0.714 1.386,-1.638 0.504,-0.924 0.504,-2.016 v -3.15 h -6.804 q -2.1,0 -3.318,1.092 -1.176,1.092 -1.176,3.024 z m 31.71002,7.224 q -2.142,0 -3.864,-0.63 -1.68,-0.63 -2.898,-1.806 -1.176,-1.176 -1.848,-2.856 -0.63,-1.68 -0.63,-3.738 v -5.88 q 0,-2.058 0.63,-3.738 0.672,-1.68 1.848,-2.856 1.218,-1.176 2.898,-1.806 1.722,-0.63 3.864,-0.63 3.822,0 6.258,2.1 2.478,2.058 2.982,5.67 h -3.78 q -0.294,-2.016 -1.806,-3.192 -1.47,-1.218 -3.654,-1.218 -2.52,0 -3.99,1.512 -1.47,1.512 -1.47,4.158 v 5.88 q 0,2.646 1.428,4.158 1.47,1.512 4.032,1.512 2.184,0 3.654,-1.176 1.512,-1.218 1.806,-3.234 h 3.78 q -0.546,3.654 -3.024,5.712 -2.436,2.058 -6.216,2.058 z m 15.62401,-15.12 q 0,-4.116 2.436,-6.468 2.478,-2.352 6.804,-2.352 4.326,0 6.762,2.352 2.478,2.352 2.478,6.468 v 4.242 h -14.7 v 1.848 q 0,2.646 1.428,4.158 1.47,1.512 4.032,1.512 1.89,0 3.276,-0.588 1.386,-0.588 2.058,-1.722 h 3.78 q -0.714,2.646 -3.192,4.158 -2.436,1.512 -5.922,1.512 -4.326,0 -6.804,-2.352 -2.436,-2.352 -2.436,-6.468 z m 3.78,1.092 h 10.92 V 445.3 q 0,-2.604 -1.428,-4.032 -1.428,-1.428 -4.032,-1.428 -2.604,0 -4.032,1.428 -1.428,1.428 -1.428,4.032 z m 46.49402,7.938 h 3.99 q 0.252,1.218 1.554,1.974 1.302,0.756 3.192,0.756 h 1.176 q 2.268,0 3.528,-0.924 1.26,-0.966 1.26,-2.562 0,-2.73 -3.864,-3.318 l -3.486,-0.504 q -3.402,-0.504 -5.082,-2.142 -1.68,-1.638 -1.68,-4.578 0,-3.108 2.184,-4.83 2.226,-1.722 6.174,-1.722 h 1.176 q 1.68,0 3.108,0.42 1.428,0.42 2.52,1.218 1.092,0.756 1.764,1.848 0.714,1.05 0.924,2.352 h -3.99 q -0.252,-1.092 -1.428,-1.764 -1.176,-0.714 -2.898,-0.714 h -1.176 q -2.142,0 -3.36,0.84 -1.176,0.84 -1.176,2.52 0,1.344 0.798,2.058 0.84,0.672 2.688,0.924 l 3.486,0.504 q 3.738,0.546 5.418,2.184 1.722,1.638 1.722,4.662 0,3.234 -2.268,5.082 -2.226,1.806 -6.342,1.806 h -1.176 q -3.654,0 -6.048,-1.638 -2.352,-1.68 -2.688,-4.452 z m 25.95601,5.67 v -3.444 h 8.4 v -16.212 h -7.35 V 436.9 h 11.13 v 19.656 h 6.93 V 460 Z m 9.24,-32.13 h 0.84 q 1.218,0 1.974,0.714 0.756,0.714 0.756,1.848 0,1.134 -0.756,1.806 -0.756,0.672 -1.974,0.672 h -0.84 q -1.218,0 -1.974,-0.63 -0.756,-0.672 -0.756,-1.848 0,-1.134 0.756,-1.848 0.756,-0.714 1.974,-0.714 z M 881.00397,460 v -23.1 h 3.276 v 3.402 h 0.294 q 0.168,-1.848 1.092,-2.814 0.924,-1.008 2.604,-1.008 3.108,0 3.99,3.822 h 0.252 q 0.168,-1.848 1.176,-2.814 1.008,-1.008 2.688,-1.008 2.142,0 3.36,1.596 1.26,1.554 1.26,4.326 V 460 h -3.612 v -17.598 q 0,-1.47 -0.63,-2.226 -0.588,-0.798 -1.722,-0.798 -1.218,0 -1.89,0.84 -0.672,0.84 -0.672,2.394 V 460 h -2.94 v -17.598 q 0,-1.47 -0.672,-2.226 -0.63,-0.798 -1.806,-0.798 -1.218,0 -1.848,0.84 -0.63,0.84 -0.63,2.394 V 460 Z m 25.83001,-5.67 h 3.99 q 0.252,1.218 1.554,1.974 1.302,0.756 3.192,0.756 h 1.176 q 2.268,0 3.528,-0.924 1.26,-0.966 1.26,-2.562 0,-2.73 -3.864,-3.318 l -3.486,-0.504 q -3.402,-0.504 -5.082,-2.142 -1.68,-1.638 -1.68,-4.578 0,-3.108 2.184,-4.83 2.226,-1.722 6.174,-1.722 h 1.176 q 1.68,0 3.108,0.42 1.428,0.42 2.52,1.218 1.092,0.756 1.764,1.848 0.714,1.05 0.924,2.352 h -3.99 q -0.252,-1.092 -1.428,-1.764 -1.176,-0.714 -2.898,-0.714 h -1.176 q -2.142,0 -3.36,0.84 -1.176,0.84 -1.176,2.52 0,1.344 0.798,2.058 0.84,0.672 2.688,0.924 l 3.486,0.504 q 3.738,0.546 5.418,2.184 1.722,1.638 1.722,4.662 0,3.234 -2.268,5.082 -2.226,1.806 -6.342,1.806 h -1.176 q -3.654,0 -6.048,-1.638 -2.352,-1.68 -2.688,-4.452 z m 36.79201,-24.57 v 5.04 l -0.882,16.17 h -2.688 l -0.882,-16.17 v -5.04 z m -5.376,27.972 q 0,-1.134 0.756,-1.848 0.756,-0.714 1.974,-0.714 h 0.84 q 1.218,0 1.974,0.714 0.756,0.714 0.756,1.848 0,1.134 -0.756,1.806 -0.756,0.672 -1.974,0.672 h -0.84 q -1.218,0 -1.974,-0.63 -0.756,-0.672 -0.756,-1.848 z" />
        </g>
        <path
            d="m 535.39173,60.24 q -1.224,0 -2.208,-0.36 -0.96,-0.36 -1.656,-1.032 -0.672,-0.672 -1.056,-1.632 -0.36,-0.96 -0.36,-2.136 v -3.36 q 0,-1.176 0.36,-2.136 0.384,-0.96 1.056,-1.632 0.696,-0.672 1.656,-1.032 0.984,-0.36 2.208,-0.36 2.184,0 3.576,1.2 1.416,1.176 1.704,3.24 h -2.16 q -0.168,-1.152 -1.032,-1.824 -0.84,-0.696 -2.088,-0.696 -1.44,0 -2.28,0.864 -0.84,0.864 -0.84,2.376 v 3.36 q 0,1.512 0.816,2.376 0.84,0.864 2.304,0.864 1.248,0 2.088,-0.672 0.864,-0.696 1.032,-1.848 h 2.16 q -0.312,2.088 -1.728,3.264 -1.392,1.176 -3.552,1.176 z m 11.736,-13.44 v 2.28 h 0.192 q 0.312,-1.176 1.296,-1.848 0.984,-0.672 2.424,-0.672 2.088,0 3.264,1.32 1.2,1.296 1.2,3.576 V 52.2 h -2.16 v -0.48 q 0,-1.56 -0.792,-2.4 -0.768,-0.864 -2.208,-0.864 -1.416,0 -2.256,0.888 -0.84,0.864 -0.84,2.376 V 60 h -2.16 V 46.8 Z m 11.18401,9.36 q 0,-0.936 0.312,-1.68 0.336,-0.768 0.936,-1.296 0.624,-0.528 1.488,-0.816 0.864,-0.288 1.944,-0.288 h 3.936 V 51 q 0,-1.224 -0.816,-1.896 -0.792,-0.696 -2.304,-0.696 -1.104,0 -1.896,0.408 -0.768,0.408 -1.032,1.128 h -2.16 q 0.336,-1.56 1.704,-2.472 1.392,-0.912 3.432,-0.912 2.448,0 3.84,1.152 1.392,1.128 1.392,3.168 V 60 h -1.968 v -2.52 h -0.192 q -0.312,1.272 -1.464,2.016 -1.152,0.744 -2.808,0.744 -1.992,0 -3.168,-1.104 -1.176,-1.104 -1.176,-2.976 z m 2.16,-0.048 q 0,1.104 0.696,1.728 0.696,0.624 1.968,0.624 0.816,0 1.512,-0.216 0.696,-0.216 1.2,-0.6 0.504,-0.408 0.792,-0.936 0.288,-0.528 0.288,-1.152 v -1.8 h -3.888 q -1.2,0 -1.896,0.624 -0.672,0.624 -0.672,1.728 z M 572.63975,46.8 h 3.84 v -4.08 h 2.16 v 4.08 h 5.16 v 1.968 h -5.16 v 7.824 q 0,0.672 0.408,1.056 0.432,0.384 1.152,0.384 h 3.36 V 60 h -3.36 q -1.704,0 -2.712,-0.936 -1.008,-0.936 -1.008,-2.472 v -7.824 h -3.84 z m 14.88001,4.8 q 0,-2.352 1.392,-3.696 1.416,-1.344 3.888,-1.344 2.472,0 3.864,1.344 1.416,1.344 1.416,3.696 v 2.424 h -8.4 v 1.056 q 0,1.512 0.816,2.376 0.84,0.864 2.304,0.864 1.08,0 1.872,-0.336 0.792,-0.336 1.176,-0.984 h 2.16 q -0.408,1.512 -1.824,2.376 -1.392,0.864 -3.384,0.864 -2.472,0 -3.888,-1.344 -1.392,-1.344 -1.392,-3.696 z m 2.16,0.624 h 6.24 V 51.6 q 0,-1.488 -0.816,-2.304 -0.816,-0.816 -2.304,-0.816 -1.488,0 -2.304,0.816 -0.816,0.816 -0.816,2.304 z m 12.16801,4.536 h 2.28 q 0.144,0.696 0.888,1.128 0.744,0.432 1.824,0.432 h 0.672 q 1.296,0 2.016,-0.528 0.72,-0.552 0.72,-1.464 0,-1.56 -2.208,-1.896 l -1.992,-0.288 q -1.944,-0.288 -2.904,-1.224 -0.96,-0.936 -0.96,-2.616 0,-1.776 1.248,-2.76 1.272,-0.984 3.528,-0.984 h 0.672 q 0.96,0 1.776,0.24 0.816,0.24 1.44,0.696 0.624,0.432 1.008,1.056 0.408,0.6 0.528,1.344 h -2.28 q -0.144,-0.624 -0.816,-1.008 -0.672,-0.408 -1.656,-0.408 h -0.672 q -1.224,0 -1.92,0.48 -0.672,0.48 -0.672,1.44 0,0.768 0.456,1.176 0.48,0.384 1.536,0.528 l 1.992,0.288 q 2.136,0.312 3.096,1.248 0.984,0.936 0.984,2.664 0,1.848 -1.296,2.904 -1.272,1.032 -3.624,1.032 h -0.672 q -2.088,0 -3.456,-0.936 -1.344,-0.96 -1.536,-2.544 z m 17.68801,1.344 q 0,-0.936 0.552,-1.488 0.576,-0.576 1.512,-0.576 0.936,0 1.488,0.576 0.576,0.552 0.576,1.488 0,0.96 -0.576,1.56 -0.552,0.576 -1.488,0.576 -0.936,0 -1.512,-0.576 -0.552,-0.6 -0.552,-1.56 z M 631.07979,60 v -1.968 h 4.8 v -9.264 h -4.2 V 46.8 h 6.36 v 11.232 h 3.96 V 60 Z m 5.28,-18.36 h 0.48 q 0.696,0 1.128,0.408 0.432,0.408 0.432,1.056 0,0.648 -0.432,1.032 -0.432,0.384 -1.128,0.384 h -0.48 q -0.696,0 -1.128,-0.36 -0.432,-0.384 -0.432,-1.056 0,-0.648 0.432,-1.056 0.432,-0.408 1.128,-0.408 z m 14.04001,18.6 q -1.224,0 -2.208,-0.36 -0.96,-0.36 -1.656,-1.032 -0.672,-0.672 -1.056,-1.632 -0.36,-0.96 -0.36,-2.136 v -3.36 q 0,-1.2 0.36,-2.136 0.384,-0.96 1.056,-1.632 0.696,-0.672 1.656,-1.032 0.984,-0.36 2.208,-0.36 2.448,0 3.864,1.368 1.416,1.368 1.416,3.768 v 3.384 q 0,2.4 -1.416,3.792 -1.392,1.368 -3.864,1.368 z m -3.12,-5.16 q 0,1.512 0.816,2.376 0.84,0.864 2.304,0.864 1.44,0 2.28,-0.864 0.84,-0.864 0.84,-2.376 v -3.36 q 0,-1.512 -0.84,-2.376 -0.84,-0.864 -2.28,-0.864 -1.44,0 -2.28,0.864 -0.84,0.864 -0.84,2.376 z m 20.64001,-15 h 2.28 l -8.52,22.56 h -2.28 z m 11.47201,20.16 q -1.224,0 -2.208,-0.36 -0.96,-0.36 -1.656,-1.032 -0.672,-0.672 -1.056,-1.632 -0.36,-0.96 -0.36,-2.136 v -3.36 q 0,-1.176 0.36,-2.136 0.384,-0.96 1.056,-1.632 0.696,-0.672 1.656,-1.032 0.984,-0.36 2.208,-0.36 2.184,0 3.576,1.2 1.416,1.176 1.704,3.24 h -2.16 q -0.168,-1.152 -1.032,-1.824 -0.84,-0.696 -2.088,-0.696 -1.44,0 -2.28,0.864 -0.84,0.864 -0.84,2.376 v 3.36 q 0,1.512 0.816,2.376 0.84,0.864 2.304,0.864 1.248,0 2.088,-0.672 0.864,-0.696 1.032,-1.848 h 2.16 q -0.312,2.088 -1.728,3.264 -1.392,1.176 -3.552,1.176 z M 691.12783,46.8 v 2.28 h 0.192 q 0.312,-1.176 1.296,-1.848 0.984,-0.672 2.424,-0.672 2.088,0 3.264,1.32 1.2,1.296 1.2,3.576 V 52.2 h -2.16 v -0.48 q 0,-1.56 -0.792,-2.4 -0.768,-0.864 -2.208,-0.864 -1.416,0 -2.256,0.888 -0.84,0.864 -0.84,2.376 V 60 h -2.16 V 46.8 Z m 11.18401,9.36 q 0,-0.936 0.312,-1.68 0.336,-0.768 0.936,-1.296 0.624,-0.528 1.488,-0.816 0.864,-0.288 1.944,-0.288 h 3.936 V 51 q 0,-1.224 -0.816,-1.896 -0.792,-0.696 -2.304,-0.696 -1.104,0 -1.896,0.408 -0.768,0.408 -1.032,1.128 h -2.16 q 0.336,-1.56 1.704,-2.472 1.392,-0.912 3.432,-0.912 2.448,0 3.84,1.152 1.392,1.128 1.392,3.168 V 60 h -1.968 v -2.52 h -0.192 q -0.312,1.272 -1.464,2.016 -1.152,0.744 -2.808,0.744 -1.992,0 -3.168,-1.104 -1.176,-1.104 -1.176,-2.976 z m 2.16,-0.048 q 0,1.104 0.696,1.728 0.696,0.624 1.968,0.624 0.816,0 1.512,-0.216 0.696,-0.216 1.2,-0.6 0.504,-0.408 0.792,-0.936 0.288,-0.528 0.288,-1.152 v -1.8 h -3.888 q -1.2,0 -1.896,0.624 -0.672,0.624 -0.672,1.728 z m 12.168,-9.312 h 3.84 v -4.08 h 2.16 v 4.08 h 5.16 v 1.968 h -5.16 v 7.824 q 0,0.672 0.408,1.056 0.432,0.384 1.152,0.384 h 3.36 V 60 h -3.36 q -1.704,0 -2.712,-0.936 -1.008,-0.936 -1.008,-2.472 v -7.824 h -3.84 z m 14.88001,4.8 q 0,-2.352 1.392,-3.696 1.416,-1.344 3.888,-1.344 2.472,0 3.864,1.344 1.416,1.344 1.416,3.696 v 2.424 h -8.4 v 1.056 q 0,1.512 0.816,2.376 0.84,0.864 2.304,0.864 1.08,0 1.872,-0.336 0.792,-0.336 1.176,-0.984 h 2.16 q -0.408,1.512 -1.824,2.376 -1.392,0.864 -3.384,0.864 -2.472,0 -3.888,-1.344 -1.392,-1.344 -1.392,-3.696 z m 2.16,0.624 h 6.24 V 51.6 q 0,-1.488 -0.816,-2.304 -0.816,-0.816 -2.304,-0.816 -1.488,0 -2.304,0.816 -0.816,0.816 -0.816,2.304 z m 12.16801,4.536 h 2.28 q 0.144,0.696 0.888,1.128 0.744,0.432 1.824,0.432 h 0.672 q 1.296,0 2.016,-0.528 0.72,-0.552 0.72,-1.464 0,-1.56 -2.208,-1.896 l -1.992,-0.288 q -1.944,-0.288 -2.904,-1.224 -0.96,-0.936 -0.96,-2.616 0,-1.776 1.248,-2.76 1.272,-0.984 3.528,-0.984 h 0.672 q 0.96,0 1.776,0.24 0.816,0.24 1.44,0.696 0.624,0.432 1.008,1.056 0.408,0.6 0.528,1.344 h -2.28 q -0.144,-0.624 -0.816,-1.008 -0.672,-0.408 -1.656,-0.408 h -0.672 q -1.224,0 -1.92,0.48 -0.672,0.48 -0.672,1.44 0,0.768 0.456,1.176 0.48,0.384 1.536,0.528 l 1.992,0.288 q 2.136,0.312 3.096,1.248 0.984,0.936 0.984,2.664 0,1.848 -1.296,2.904 -1.272,1.032 -3.624,1.032 h -0.672 q -2.088,0 -3.456,-0.936 -1.344,-0.96 -1.536,-2.544 z m 22.87201,-16.68 h 2.28 l -8.52,22.56 h -2.28 z m 6.31201,2.64 h 2.16 v 9.6 h 2.592 l 4.032,-5.52 h 2.472 l -4.68,6.384 4.752,6.816 h -2.52 l -4.032,-5.76 h -2.616 V 60 h -2.16 z m 14.08801,8.88 q 0,-2.352 1.392,-3.696 1.416,-1.344 3.888,-1.344 2.472,0 3.864,1.344 1.416,1.344 1.416,3.696 v 2.424 h -8.4 v 1.056 q 0,1.512 0.816,2.376 0.84,0.864 2.304,0.864 1.08,0 1.872,-0.336 0.792,-0.336 1.176,-0.984 h 2.16 q -0.408,1.512 -1.824,2.376 -1.392,0.864 -3.384,0.864 -2.472,0 -3.888,-1.344 -1.392,-1.344 -1.392,-3.696 z m 2.16,0.624 h 6.24 V 51.6 q 0,-1.488 -0.816,-2.304 -0.816,-0.816 -2.304,-0.816 -1.488,0 -2.304,0.816 -0.816,0.816 -0.816,2.304 z M 803.71188,46.8 h 2.04 v 2.28 h 0.192 q 0.312,-1.2 1.272,-1.848 0.96,-0.672 2.424,-0.672 1.008,0 1.824,0.36 0.816,0.36 1.392,1.032 0.576,0.648 0.888,1.608 0.336,0.96 0.336,2.16 v 3.36 q 0,1.2 -0.336,2.16 -0.312,0.96 -0.888,1.632 -0.576,0.648 -1.392,1.008 -0.816,0.36 -1.824,0.36 -1.464,0 -2.424,-0.648 -0.96,-0.672 -1.272,-1.872 h -0.192 q 0.024,0.408 0.072,0.816 0.024,0.36 0.024,0.744 0.024,0.384 0.024,0.72 v 4.08 h -2.16 z m 2.16,4.92 v 3.36 q 0,1.512 0.792,2.4 0.816,0.888 2.16,0.888 1.44,0 2.256,-0.888 0.84,-0.888 0.84,-2.4 v -3.36 q 0,-1.56 -0.816,-2.424 -0.816,-0.864 -2.28,-0.864 -1.344,0 -2.16,0.888 -0.792,0.888 -0.792,2.4 z m 11.08803,-7.272 V 42.48 h 6.528 v 13.68 q 0,0.888 0.48,1.392 0.48,0.48 1.32,0.48 h 3.912 V 60 h -3.912 q -1.848,0 -2.904,-1.008 -1.056,-1.032 -1.056,-2.832 V 44.448 Z m 15.36002,7.152 q 0,-2.352 1.392,-3.696 1.416,-1.344 3.888,-1.344 2.472,0 3.864,1.344 1.416,1.344 1.416,3.696 v 2.424 h -8.4 v 1.056 q 0,1.512 0.816,2.376 0.84,0.864 2.304,0.864 1.08,0 1.872,-0.336 0.792,-0.336 1.176,-0.984 h 2.16 q -0.408,1.512 -1.824,2.376 -1.392,0.864 -3.384,0.864 -2.472,0 -3.888,-1.344 -1.392,-1.344 -1.392,-3.696 z m 2.16,0.624 h 6.24 V 51.6 q 0,-1.488 -0.816,-2.304 -0.816,-0.816 -2.304,-0.816 -1.488,0 -2.304,0.816 -0.816,0.816 -0.816,2.304 z m 15.048,-5.424 v 2.28 h 0.192 q 0.312,-1.176 1.296,-1.848 0.984,-0.672 2.424,-0.672 2.088,0 3.264,1.32 1.2,1.296 1.2,3.576 V 52.2 h -2.16 v -0.48 q 0,-1.56 -0.792,-2.4 -0.768,-0.864 -2.208,-0.864 -1.416,0 -2.256,0.888 -0.84,0.864 -0.84,2.376 V 60 h -2.16 V 46.8 Z M 861.47992,60 v -1.968 h 4.8 v -9.264 h -4.2 V 46.8 h 6.36 v 11.232 h 3.96 V 60 Z m 5.28,-18.36 h 0.48 q 0.696,0 1.128,0.408 0.432,0.408 0.432,1.056 0,0.648 -0.432,1.032 -0.432,0.384 -1.128,0.384 h -0.48 q -0.696,0 -1.128,-0.36 -0.432,-0.384 -0.432,-1.056 0,-0.648 0.432,-1.056 0.432,-0.408 1.128,-0.408 z m 8.35203,14.52 q 0,-0.936 0.312,-1.68 0.336,-0.768 0.936,-1.296 0.624,-0.528 1.488,-0.816 0.864,-0.288 1.944,-0.288 h 3.936 V 51 q 0,-1.224 -0.816,-1.896 -0.792,-0.696 -2.304,-0.696 -1.104,0 -1.896,0.408 -0.768,0.408 -1.032,1.128 h -2.16 q 0.336,-1.56 1.704,-2.472 1.392,-0.912 3.432,-0.912 2.448,0 3.84,1.152 1.392,1.128 1.392,3.168 V 60 h -1.968 v -2.52 h -0.192 q -0.312,1.272 -1.464,2.016 -1.152,0.744 -2.808,0.744 -1.992,0 -3.168,-1.104 -1.176,-1.104 -1.176,-2.976 z m 2.16,-0.048 q 0,1.104 0.696,1.728 0.696,0.624 1.968,0.624 0.816,0 1.512,-0.216 0.696,-0.216 1.2,-0.6 0.504,-0.408 0.792,-0.936 0.288,-0.528 0.288,-1.152 v -1.8 h -3.888 q -1.2,0 -1.896,0.624 -0.672,0.624 -0.672,1.728 z M 890.11197,46.8 h 2.04 v 2.28 h 0.192 q 0.312,-1.224 1.248,-1.872 0.936,-0.648 2.376,-0.648 1.032,0 1.824,0.36 0.816,0.336 1.368,0.96 0.576,0.624 0.864,1.488 0.288,0.84 0.288,1.848 V 60 h -2.16 v -8.424 q 0,-1.512 -0.768,-2.352 -0.768,-0.84 -2.136,-0.84 -1.368,0 -2.184,0.912 -0.792,0.888 -0.792,2.424 V 60 h -2.16 z m 13.72799,13.8 h 11.52 v 1.8 h -11.52 z m 14.808,-3.84 h 2.28 q 0.144,0.696 0.888,1.128 0.744,0.432 1.824,0.432 h 0.672 q 1.296,0 2.016,-0.528 0.72,-0.552 0.72,-1.464 0,-1.56 -2.208,-1.896 l -1.992,-0.288 q -1.944,-0.288 -2.904,-1.224 -0.96,-0.936 -0.96,-2.616 0,-1.776 1.248,-2.76 1.272,-0.984 3.528,-0.984 h 0.672 q 0.96,0 1.776,0.24 0.816,0.24 1.44,0.696 0.624,0.432 1.008,1.056 0.408,0.6 0.528,1.344 h -2.28 q -0.144,-0.624 -0.816,-1.008 -0.672,-0.408 -1.656,-0.408 h -0.672 q -1.224,0 -1.92,0.48 -0.672,0.48 -0.672,1.44 0,0.768 0.456,1.176 0.48,0.384 1.536,0.528 l 1.992,0.288 q 2.136,0.312 3.096,1.248 0.984,0.936 0.984,2.664 0,1.848 -1.296,2.904 -1.272,1.032 -3.624,1.032 h -0.672 q -2.088,0 -3.456,-0.936 -1.344,-0.96 -1.536,-2.544 z M 933.47998,60 v -1.968 h 4.8 v -9.264 h -4.2 V 46.8 h 6.36 v 11.232 h 3.96 V 60 Z m 5.28,-18.36 h 0.48 q 0.696,0 1.128,0.408 0.432,0.408 0.432,1.056 0,0.648 -0.432,1.032 -0.432,0.384 -1.128,0.384 h -0.48 q -0.696,0 -1.128,-0.36 -0.432,-0.384 -0.432,-1.056 0,-0.648 0.432,-1.056 0.432,-0.408 1.128,-0.408 z M 947.08801,60 V 46.8 h 1.872 v 1.944 h 0.168 q 0.096,-1.056 0.624,-1.608 0.528,-0.576 1.488,-0.576 1.776,0 2.28,2.184 h 0.144 q 0.096,-1.056 0.672,-1.608 0.576,-0.576 1.536,-0.576 1.224,0 1.92,0.912 0.72,0.888 0.72,2.472 V 60 h -2.064 V 49.944 q 0,-0.84 -0.36,-1.272 -0.336,-0.456 -0.984,-0.456 -0.696,0 -1.08,0.48 -0.384,0.48 -0.384,1.368 V 60 h -1.68 V 49.944 q 0,-0.84 -0.384,-1.272 -0.36,-0.456 -1.032,-0.456 -0.696,0 -1.056,0.48 -0.36,0.48 -0.36,1.368 V 60 Z"
            aria-label="crates.io/crates/keplerian_sim" />
    </g>

    <circle fill="#8a8484" stroke="#8a848488" stroke-width="1" r="4" cx="191.5" cy="150" />
    <circle fill="#e6e6e6" stroke="#e6e6e6ee" stroke-width="4" r="7" cx="352" cy="376" />
    <circle fill="#3a397a" stroke="#3a397abb" stroke-width="3" r="7" cx="412" cy="-124" />
    <circle fill="#d69868" stroke="#d69868bb" stroke-width="2" r="5.5" cx="600" cy="858" />
</svg>